<svg id="Capa_1" enable-background="new 0 0 512.006 512.006" height="512" viewBox="0 0 512.006 512.006" width="512" xmlns="http://www.w3.org/2000/svg"><g><g><path d="m431.821 122.288c-27.389-27.412-61.079-47.288-98.001-57.925 3.642-12.561 2.815-24.356.948-33.262-3.109-14.83-14.714-26.418-29.563-29.521-13.709-2.866-34.159-3.239-53.718 11.239l-27.193 20.199c-6.912 5.136-12.464 11.998-16.065 19.858-1.846 4.048-3.149 8.172-3.936 12.335-35.754 10.835-68.51 30.473-95.08 57.075-33.044 33.072-54.806 74.647-63.087 120.417l-19.603 18.335c-8.146 7.249-12.806 16.855-13.125 27.065-.31 9.901 3.559 19.399 10.899 26.752 6.144 6.143 13.817 9.863 21.964 10.728 8.398 45.444 30.046 86.625 62.953 119.559 22.252 22.276 48.258 39.397 77.294 50.887 26.804 10.606 54.999 15.974 83.808 15.974 1.33 0 2.665-.012 3.998-.035 30.786-.292 62.259-7.419 91.018-20.611 5.02-2.303 7.223-8.239 4.92-13.259-2.303-5.019-8.236-7.223-13.259-4.92-26.22 12.027-54.876 18.525-82.946 18.792-56.921.969-110.435-20.672-150.684-60.963-30.015-30.035-49.763-67.581-57.431-109.016 4.608-2.282 8.686-5.509 12.126-9.317l78.363-83.501 91.743-97.759c20.366 4.945 42.478-2.101 55.217-19.272l20.311-27.409c.513-.646.998-1.372 1.448-2.034 34.904 9.459 66.769 27.937 92.534 53.724 39.307 39.341 60.954 91.65 60.954 147.293 0 51.689-19.179 101.388-54.005 139.94-3.702 4.098-3.381 10.421.717 14.124s10.422 3.382 14.124-.717c38.153-42.235 59.164-96.694 59.164-153.347-.002-60.981-23.727-118.311-66.807-161.428zm-205.402-61.099c2.227-4.861 5.524-8.938 9.802-12.116l26.854-19.949c11.091-8.231 24.583-10.778 38.039-7.966 7.183 1.501 12.578 6.883 14.08 14.047 2.723 12.989.555 26.626-7.421 37.415l-20.458 27.611c-12.978 17.506-38.714 15.784-53.011 1-9.184-11.281-14.226-26.132-7.885-40.042zm-103.057 75.234c22.899-22.927 50.82-40.182 81.323-50.353.49 2.192 1.123 4.38 1.892 6.56l-133.403 124.776c10.123-30.351 27.152-57.928 50.188-80.983zm-89.975 152.308c.146-4.687 2.452-9.234 6.492-12.804.071-.063.141-.126.209-.19l111.718-104.493 64.616-60.437c3.46 4.689 7.674 8.605 12.463 11.924l-165.48 176.331c-6.879 7.381-17.337 9.283-24.961 1.66-3.446-3.452-5.195-7.598-5.057-11.991z"/><path d="m313.302 253.721c-4.358-3.235-7.706-7.748-9.682-13.05-3.597-9.652-9.577-18.437-17.294-25.403-23.916-21.587-60.428-22.132-84.93-1.268-9.955 8.477-17.036 19.561-20.477 32.052-1.478 5.364-4.224 9.911-7.943 13.148-2.235 1.945-4.422 4.007-6.501 6.128-21.389 21.816-32.704 50.809-31.861 81.638.844 30.867 13.748 59.239 36.335 79.891 20.762 18.983 47.469 29.324 75.54 29.324 1.13 0 2.266-.017 3.4-.05 29.437-.874 56.925-13.052 77.401-34.29 20.083-20.831 31.193-48.377 31.283-77.564s-10.851-56.8-30.805-77.753c-4.449-4.673-9.316-8.981-14.466-12.803zm-.409 154.239c-34.935 36.234-91.355 38.051-128.448 4.138-18.547-16.958-29.144-40.282-29.838-65.677-.693-25.357 8.594-49.184 26.15-67.091 1.712-1.747 3.512-3.443 5.351-5.044 6.695-5.828 11.568-13.755 14.094-22.923 2.372-8.612 7.269-16.267 14.161-22.136 8.263-7.036 18.507-10.539 28.75-10.539 10.695 0 21.387 3.82 29.813 11.426 5.418 4.89 9.439 10.791 11.954 17.54 3.328 8.931 9.034 16.582 16.501 22.125 4.234 3.144 8.24 6.689 11.905 10.538 33.612 35.294 33.436 92.555-.393 127.643z"/><path d="m249.972 301.113c-13.325 0-25.852 5.193-35.273 14.623-19.443 19.459-19.443 51.122 0 70.582 9.421 9.429 21.948 14.622 35.272 14.622 13.325 0 25.852-5.193 35.272-14.622 19.443-19.459 19.443-51.122 0-70.581-9.419-9.431-21.946-14.624-35.271-14.624zm21.125 71.067c-5.643 5.647-13.145 8.758-21.125 8.758-7.979 0-15.481-3.11-21.125-8.758-11.655-11.665-11.655-30.645 0-42.31 5.643-5.647 13.145-8.758 21.125-8.758s15.481 3.111 21.125 8.758c11.654 11.666 11.655 30.645 0 42.31z"/><path d="m452.339 327.262c-.296-40.516-12.138-79.258-33.742-113.472-19.826-31.397-47.062-57.991-77.824-78.647-15.725-10.56-37.782-4.562-46.135 12.364-7.017 14.219-2.381 31.617 10.782 40.468 20.888 14.047 51.371 39.524 69.108 77.178.266.872.647 1.695 1.13 2.451 7.875 17.504 12.972 37.568 13.132 60.271.114 16.121 12.322 29.57 28.354 31.281 18.638 1.838 35.333-13.069 35.195-31.894zm-139.765-170.905c3.085-6.252 11.22-8.525 17.05-4.609 11.376 7.638 28.216 20.315 44.718 37.727l-35.973-1.58c-7.94-6.739-15.446-12.251-21.788-16.516-4.889-3.287-6.611-9.745-4.007-15.022zm47.53 52.511 31.802 1.397c10.401 13.911 18.854 28.609 25.299 43.899l-26.662-1.566c-4.725-9.346-10.359-18.449-16.899-27.286-4.365-5.897-8.923-11.364-13.54-16.444zm68.339 127.431c-2.516 2.278-5.756 3.333-9.13 2.975h-.004c-5.956-.636-10.478-5.596-10.52-11.539-.133-18.853-3.309-37.09-9.468-54.586l25.195 1.479c5.042 17.077 7.692 34.749 7.824 52.781.025 3.434-1.359 6.591-3.897 8.89z"/><path d="m405.503 451.104c-3.551-2.37-8.337-2.184-11.7.436-3.435 2.677-4.749 7.412-3.179 11.476 3.226 8.346 15.414 8.361 18.646 0 1.671-4.322.075-9.329-3.767-11.912z"/></g></g></svg>