<svg id="Layer_1" enable-background="new 0 0 512 512" height="512" viewBox="0 0 512 512" width="512" xmlns="http://www.w3.org/2000/svg"><g><path d="m459.239 124.482c-2.498-32.224-27.681-65.976-48.529-74.624-2.873-1.192-5.692-1.939-8.421-2.276-1.172-9.565-6.587-18.08-15.592-23.61-24.433-15.004-57.38-17.25-80.713-16.483-7.158.233-15.153 1.846-21.342 6.737-7.319-8.727-18.075-13.859-30.91-14.196-19.402-.514-43.043 5.559-60.195 15.462-17.151 9.902-34.221 27.33-43.488 44.4-6.126 11.284-7.068 23.168-3.169 33.87-7.325 2.915-12.718 9.03-16.497 15.109-12.328 19.829-26.859 49.481-26.082 78.143.287 10.563 4.953 19.511 12.652 25.308-1.073 2.532-1.835 5.347-2.24 8.431-2.934 22.378 13.704 61.063 40.361 79.338 9.582 6.569 19.669 9.876 29.652 9.876 7.734 0 15.406-1.986 22.727-5.978 16.793-9.158 17.14-25.754 17.476-41.805.213-10.19.465-21.61 4.498-33.435 12.377-6.562 21.359-23.421 24.796-37.922.813-3.432 1.325-6.704 1.541-9.79 10.432 1.456 18.31-2.574 26.949-6.998l1.363-.697c.308-.157.607-.33.896-.517l1.291-.835c8.359-5.404 15.616-10.117 19.573-19.834 2.733 1.333 5.747 2.515 9.057 3.514 6.613 1.996 14.257 3.216 21.744 3.216 8.724 0 17.226-1.666 23.637-5.685 12.26 2.419 22.279 7.912 31.211 12.823 9.371 5.152 18.952 10.42 29.131 10.42 5.104 0 10.359-1.325 15.812-4.653 16.303-9.951 24.405-26.752 22.811-47.309zm-254.306 137.286c-.326 15.598-.982 21.352-7.055 24.663-10.254 5.591-20.556 4.665-31.496-2.834-19.636-13.462-33.919-44.377-31.84-60.243.177-1.347.534-2.908 1.221-3.959 2.261.404 5.055.914 8.267 1.5 31.629 5.776 51.49 8.967 63.971 10.121-2.649 11.365-2.882 21.845-3.068 30.752zm82.593-117.675c-1.476 4.094-4.591 6.233-12.123 11.103l-.879.569-.927.474c-12.109 6.2-14.629 7.49-26.651.039l-.444-.277c-4.439-2.781-10.254-1.652-13.354 2.571-3.1 4.222-2.399 10.135 1.584 13.537l-.029-.025c.753.663 2.167 5.244.059 14.133-3.238 13.661-11.347 24-15.604 25.256-8.284 1.296-55.863-7.391-71.534-10.252-5.351-.978-9.59-1.751-12.228-2.189-7.076-1.325-10.915-5.666-11.102-12.559-.502-18.491 7.692-42.299 23.074-67.04 5.354-8.612 8.989-8.36 13.947-6.141l3.699 3.036c4.268 3.504 10.57 2.885 14.074-1.384s2.885-10.57-1.384-14.074l-4.507-3.7c-.06-.051-.12-.102-.181-.152-8.952-7.704-10.867-17.493-5.389-27.582 7.515-13.842 21.946-28.559 35.911-36.622 13.965-8.062 33.921-13.212 49.67-12.789 11.512.302 19.043 6.895 21.213 18.566l11.77 71.192c2.979 18.024 3.391 28.606 1.335 34.31zm33.144-7.569c-7.965-2.404-11.329-5.53-11.983-6.786-.31-6.359-1.229-13.929-2.764-23.218l-11.578-70.034c.557-5.401 2.155-8.677 12.291-9.008 29.118-.948 53.833 3.857 69.595 13.537 5.875 3.608 7.716 9.103 5.325 15.893-.94 2.505-2.391 6.568-4.222 11.695-5.356 15-21.62 60.542-26.885 67.066-3.232 3.077-16.291 4.924-29.779.855zm105.337 18.197c-5.906 3.604-11.216 1.295-24.887-6.222-7.807-4.292-16.999-9.331-28.169-12.72 5.241-11.384 12.406-30.171 23.218-60.45 1.1-3.079 2.056-5.758 2.838-7.92 1.254-.069 2.784.402 4.039.923 14.78 6.132 34.412 33.959 36.252 57.696 1.026 13.222-3.322 22.608-13.291 28.693z"/><path d="m395.048 299.679c1.073-2.532 1.835-5.347 2.239-8.431 2.934-22.378-13.703-61.063-40.361-79.339-17.007-11.659-35.608-13.042-52.378-3.898-16.794 9.158-17.141 25.755-17.477 41.805-.213 10.188-.465 21.607-4.496 33.431-12.483 6.599-21.476 23.612-24.872 38.244-.767 3.306-1.236 6.451-1.445 9.434-10.393-1.432-18.103 2.496-26.964 7.033l-1.369.7c-.307.157-.606.33-.896.517l-1.291.835c-8.36 5.405-15.617 10.117-19.573 19.835-2.697-1.315-5.666-2.485-8.925-3.475-14.36-4.364-33.575-5.075-45.523 2.428-12.255-2.421-22.27-7.912-31.2-12.821-14.067-7.734-28.614-15.732-44.943-5.768-16.305 9.952-24.407 26.753-22.813 47.31 2.498 32.224 27.681 65.976 48.529 74.624 2.873 1.192 5.693 1.946 8.422 2.282 1.173 9.563 6.588 18.075 15.591 23.604 21.797 13.386 50.368 16.614 72.849 16.613 2.718 0 5.349-.047 7.865-.129 7.158-.234 15.153-1.847 21.341-6.738 7.319 8.726 18.075 13.859 30.91 14.196.758.02 1.522.03 2.292.03 18.958 0 41.421-5.976 57.902-15.492 17.151-9.902 34.221-27.331 43.487-44.399 6.13-11.291 7.06-23.179 3.155-33.886 7.328-2.915 12.733-9.013 16.513-15.094 12.328-19.829 26.859-49.481 26.081-78.143-.286-10.564-4.952-19.511-12.65-25.308zm-87.981-49.445c.326-15.598.982-21.352 7.055-24.664 10.253-5.591 20.556-4.665 31.495 2.834 19.636 13.462 33.92 44.377 31.84 60.244-.177 1.347-.534 2.907-1.221 3.959-2.261-.404-5.055-.914-8.267-1.5-31.635-5.777-51.49-8.966-63.971-10.119 2.65-11.367 2.883-21.847 3.069-30.754zm-234.366 135.739c-1.025-13.222 3.323-22.607 13.292-28.692 5.906-3.604 11.215-1.295 24.888 6.222 7.807 4.292 16.999 9.331 28.168 12.719-5.241 11.384-12.406 30.171-23.218 60.45-1.1 3.079-2.056 5.758-2.838 7.92-1.254.069-2.784-.402-4.039-.923-14.781-6.132-34.413-33.96-36.253-57.696zm132.663 98.55c-29.111.951-53.833-3.857-69.595-13.538-5.875-3.608-7.716-9.103-5.325-15.893.94-2.505 2.391-6.568 4.222-11.695 5.356-15 21.619-60.542 26.884-67.066 3.249-3.091 16.349-4.937 29.875-.826 7.907 2.403 11.24 5.507 11.889 6.756.31 6.359 1.229 13.93 2.764 23.219l11.577 70.034c-.556 5.402-2.155 8.678-12.291 9.009zm139.01-41.956c-7.514 13.841-21.946 28.559-35.911 36.622s-33.92 13.213-49.67 12.789c-11.513-.302-19.044-6.895-21.213-18.567l-11.769-71.192c-2.98-18.024-3.392-28.606-1.336-34.31 1.476-4.094 4.591-6.233 12.123-11.103l.88-.569.933-.477c7.983-4.087 11.396-5.715 15.676-4.947 5.967 1.072 14.925 6.719 29.045 18.313l55.771 45.79c9.022 7.713 10.965 17.531 5.471 27.651zm20.259-49.997c-5.354 8.612-8.992 8.359-13.947 6.141l-54.863-45.044c-7.278-5.975-13.366-10.542-18.718-13.99-.757-1.166-1.792-5.599.08-13.665 3.198-13.779 11.352-24.213 15.657-25.482 8.288-1.302 55.864 7.39 71.534 10.252 5.35.977 9.589 1.751 12.228 2.189 7.076 1.324 10.915 5.666 11.102 12.558.502 18.491-7.692 42.3-23.073 67.041z"/><path d="m206.14 127.155h-.007c-5.523 0-9.996 4.477-9.996 10s4.48 10 10.003 10 10-4.477 10-10-4.477-10-10-10z"/></g></svg>