<?xml version="1.0" encoding="iso-8859-1"?>
<!-- Generator: Adobe Illustrator 19.0.0, SVG Export Plug-In . SVG Version: 6.00 Build 0)  -->
<svg version="1.1" id="Capa_1" xmlns="http://www.w3.org/2000/svg" xmlns:xlink="http://www.w3.org/1999/xlink" x="0px" y="0px"
	 viewBox="0 0 512.001 512.001" style="enable-background:new 0 0 512.001 512.001;" xml:space="preserve">
<g>
	<g>
		<path d="M504.863,371.672l-8.259-8.977V234.039c0-5.522-4.478-9.999-9.999-9.999h-4.726c-0.501-10.071-2.571-20.473-8.912-29.187
			c-10.646-14.628-28.932-19.398-46.615-24.011c-11.734-3.062-22.818-5.952-30.199-11.325c-7.232-5.264-13.323-14.822-19.769-24.941
			c-9.89-15.522-20.116-31.572-37.566-37.238c-16.728-5.432-34.07,1.328-50.84,7.863c-11.053,4.307-22.481,8.76-32.091,8.76
			c-9.466,0-20.797-4.384-31.755-8.622c-16.867-6.524-34.308-13.27-51.145-7.706c-17.283,5.715-27.4,21.736-37.183,37.23
			c-6.436,10.194-12.517,19.824-19.787,25.137c-7.354,5.375-18.449,8.254-30.195,11.303c-17.644,4.581-35.891,9.316-46.553,23.87
			c-6.326,8.635-8.438,18.916-8.993,28.867h-4.88c-5.523,0-9.999,4.477-9.999,9.999v128.656l-8.259,8.977
			c-7.315,7.951-9.162,19.037-4.821,28.932c0.068,0.155,0.137,0.308,0.207,0.461c0.035,0.076,0.071,0.152,0.106,0.229
			c3.791,8.047,10.997,13.485,19.535,14.953c0.403,0.069,462.962,0.398,462.962,0.398c10.805,0,20.214-6.146,24.556-16.041
			C514.027,390.711,512.179,379.624,504.863,371.672z M476.606,244.038v96.92l-21.792-23.687c3.324-9.37,5.006-19.191,5.006-29.281
			c0-16.004-4.308-31.021-11.825-43.952H476.606z M295.238,123.834c14.125-5.503,27.463-10.703,37.404-7.475
			c10.618,3.448,18.515,15.842,26.876,28.963c7.163,11.245,14.572,22.872,24.867,30.364c10.441,7.598,23.902,11.11,36.92,14.506
			c14.941,3.898,29.054,7.579,35.494,16.428c3.345,4.597,4.639,10.895,5.053,17.42h-29.763
			c-15.701-14.739-36.813-23.779-59.996-23.779c-7.576,0-15.05,0.961-22.297,2.861l-68.249-74.182
			C286.156,127.373,290.725,125.593,295.238,123.834z M439.821,287.99c0,4.019-0.345,7.981-1.029,11.867l-72.968-79.312
			c2.075-0.19,4.166-0.285,6.267-0.285C409.437,220.259,439.821,250.643,439.821,287.99z M55.402,206.991
			c6.451-8.805,20.534-12.461,35.445-16.331c13.045-3.387,26.536-6.887,36.971-14.515c10.346-7.56,17.743-19.276,24.897-30.606
			c8.265-13.091,16.073-25.455,26.551-28.919c10.032-3.317,23.448,1.874,37.653,7.369c4.45,1.721,8.953,3.463,13.495,4.999
			l-66.229,71.987c-3.714-0.474-7.471-0.714-11.225-0.714c-23.184,0-44.295,9.039-59.997,23.779H50.314
			C50.771,217.66,52.093,211.508,55.402,206.991z M146.126,220.601l-60.89,66.183C85.842,252.287,112.366,223.997,146.126,220.601z
			 M35.396,244.038h41.657c-7.516,12.931-11.825,27.948-11.825,43.952c0,6.22,0.653,12.398,1.943,18.43l-31.775,34.538V244.038z
			 M491.372,392.569c-0.539,1.227-2.225,4.079-6.243,4.079H26.873c-4.02,0-5.705-2.853-6.243-4.079
			c-0.042-0.096-0.087-0.204-0.132-0.322c-0.018-0.047-0.036-0.097-0.055-0.147c-0.009-0.025-0.018-0.051-0.027-0.077
			c-0.018-0.053-0.036-0.107-0.054-0.162c-0.009-0.028-0.018-0.056-0.027-0.085c-0.465-1.517-0.734-4.113,1.52-6.562
			l229.127-249.048c0.633-0.689,1.315-1.167,1.981-1.497c1.187-0.588,2.321-0.706,3.037-0.706c1.117,0,3.255,0.286,5.018,2.202
			l13.998,15.215L133.697,304.984c-3.739,4.065-3.476,10.39,0.589,14.129c4.064,3.739,10.389,3.477,14.129-0.589l140.188-152.376
			l201.543,219.064C492.867,388.171,491.911,391.343,491.372,392.569z"/>
	</g>
</g>
<g>
	<g>
		<path d="M120.785,334.437l-0.103-0.103c-3.896-3.915-10.226-3.93-14.141-0.034c-3.915,3.896-3.93,10.226-0.034,14.141l0.103,0.103
			c1.954,1.964,4.521,2.946,7.087,2.946c2.551,0,5.103-0.97,7.053-2.912C124.666,344.682,124.681,338.351,120.785,334.437z"/>
	</g>
</g>
<g>
	<g>
		<path d="M314.589,295.919l-3.13-3.13c-3.904-3.905-10.236-3.905-14.141-0.001c-3.905,3.905-3.906,10.236-0.001,14.141l3.13,3.13
			c1.952,1.953,4.511,2.93,7.07,2.93c2.559,0,5.117-0.976,7.07-2.929C318.493,306.155,318.494,299.824,314.589,295.919z"/>
	</g>
</g>
<g>
	<g>
		<path d="M382.165,302.127l-3.131-3.131c-3.907-3.905-10.236-3.905-14.142,0c-3.905,3.906-3.905,10.237,0,14.142l3.131,3.131
			c1.953,1.953,4.511,2.929,7.07,2.929c2.56,0,5.119-0.976,7.071-2.929C386.07,312.363,386.07,306.031,382.165,302.127z"/>
	</g>
</g>
<g>
	<g>
		<path d="M356.482,355.998l-3.13-3.131c-3.906-3.906-10.235-3.907-14.142-0.003c-3.905,3.905-3.906,10.235-0.002,14.141l3.13,3.131
			c1.953,1.953,4.512,2.93,7.071,2.93c2.558,0,5.117-0.977,7.07-2.927C360.384,366.234,360.385,359.904,356.482,355.998z"/>
	</g>
</g>
<g>
</g>
<g>
</g>
<g>
</g>
<g>
</g>
<g>
</g>
<g>
</g>
<g>
</g>
<g>
</g>
<g>
</g>
<g>
</g>
<g>
</g>
<g>
</g>
<g>
</g>
<g>
</g>
<g>
</g>
</svg>
