<?xml version="1.0" encoding="iso-8859-1"?>
<!-- Generator: Adobe Illustrator 19.0.0, SVG Export Plug-In . SVG Version: 6.00 Build 0)  -->
<svg version="1.1" id="Capa_1" x="0px" y="0px"
	 viewBox="0 0 512 512" style="enable-background:new 0 0 512 512;" xml:space="preserve">
<g>
	<g>
		<path d="M502.154,354.462h-0.21c-2.425-62.054-27.723-120.047-71.887-164.211c-39.456-39.457-89.951-63.859-144.519-70.344
			v-11.599c0-16.287-13.251-29.538-29.538-29.538s-29.538,13.251-29.538,29.538v11.599c-54.567,6.485-105.062,30.887-144.519,70.344
			C37.78,234.414,12.482,292.407,10.056,354.462h-0.21c-5.438,0-9.846,4.408-9.846,9.846v59.077c0,5.438,4.408,9.846,9.846,9.846
			h492.308c5.438,0,9.846-4.408,9.846-9.846v-59.077C512,358.87,507.592,354.462,502.154,354.462z M246.154,108.308
			c0-5.429,4.417-9.846,9.846-9.846s9.846,4.417,9.846,9.846v9.846h-19.692V108.308z M31.473,334.769h27.604
			c5.438,0,9.846-4.408,9.846-9.846s-4.408-9.846-9.846-9.846h-24.14C57.478,213.799,148.033,137.846,256,137.846
			c121.571,0,221.076,96.295,226.251,216.615H29.749C30.036,347.818,30.625,341.254,31.473,334.769z M492.308,413.538H19.692
			v-39.385h472.615V413.538z"/>
	</g>
</g>
<g>
	<g>
		<path d="M98.274,323.003c-0.128-0.63-0.325-1.25-0.571-1.841c-0.246-0.601-0.551-1.172-0.906-1.703
			c-0.354-0.542-0.768-1.044-1.221-1.497c-0.453-0.453-0.955-0.866-1.497-1.221c-0.532-0.354-1.103-0.66-1.694-0.906
			c-0.601-0.246-1.221-0.443-1.851-0.561c-1.27-0.256-2.57-0.256-3.84,0c-0.63,0.118-1.25,0.315-1.841,0.561
			c-0.601,0.246-1.172,0.551-1.703,0.906c-0.542,0.354-1.044,0.768-1.497,1.221c-0.453,0.453-0.866,0.955-1.221,1.497
			c-0.354,0.532-0.66,1.103-0.906,1.703c-0.246,0.591-0.443,1.211-0.561,1.841c-0.128,0.63-0.197,1.28-0.197,1.92
			s0.069,1.29,0.197,1.92c0.118,0.63,0.315,1.25,0.561,1.841c0.246,0.601,0.551,1.172,0.906,1.703
			c0.354,0.542,0.768,1.044,1.221,1.497c0.453,0.453,0.955,0.866,1.497,1.221c0.532,0.354,1.103,0.66,1.703,0.906
			c0.591,0.246,1.211,0.443,1.841,0.561c0.63,0.128,1.28,0.197,1.92,0.197c0.64,0,1.29-0.069,1.92-0.197
			c0.63-0.118,1.25-0.315,1.851-0.561c0.591-0.246,1.162-0.551,1.694-0.906c0.542-0.354,1.044-0.768,1.497-1.221
			c0.453-0.453,0.866-0.955,1.221-1.497c0.354-0.532,0.66-1.103,0.906-1.703c0.246-0.591,0.443-1.211,0.571-1.841
			c0.128-0.63,0.187-1.28,0.187-1.92S98.402,323.633,98.274,323.003z"/>
	</g>
</g>
<g></g>
<g>
</g>
<g>
</g>
<g>
</g>
<g>
</g>
<g>
</g>
<g>
</g>
<g>
</g>
<g>
</g>
<g>
</g>
<g>
</g>
<g>
</g>
<g>
</g>
<g>
</g>
<g>
</g>
</svg>
